<?xml version="1.0" encoding="utf-8"?>
<svg width="613" height="116" viewBox="0 0 613 116" fill="none" xmlns="http://www.w3.org/2000/svg">
  <defs>
    <linearGradient id="gradient_1" gradientUnits="userSpaceOnUse" x1="0" y1="0" x2="566" y2="116">
      <stop offset="0" stop-color="#FFFFFF" />
      <stop offset="1" stop-color="#F3E5E5" stop-opacity="0.216" />
    </linearGradient>
    <filter color-interpolation-filters="sRGB" x="-564" y="-114" width="566" height="116" id="filter_2">
      <feFlood flood-opacity="0" result="BackgroundImageFix_1" />
      <feColorMatrix type="matrix" values="0 0 0 0 0 0 0 0 0 0 0 0 0 0 0 0 0 0 1 0" in="SourceAlpha" />
      <feOffset dx="0" dy="4" />
      <feGaussianBlur stdDeviation="2" />
      <feColorMatrix type="matrix" values="0 0 0 0 0 0 0 0 0 0 0 0 0 0 0 0 0 0 0.251 0" />
      <feBlend mode="normal" in2="BackgroundImageFix_1" result="Shadow_2" />
      <feBlend mode="normal" in="SourceGraphic" in2="Shadow_2" result="Shape_3" />
    </filter>
    <linearGradient id="gradient_3" gradientUnits="userSpaceOnUse" x1="0" y1="0" x2="539" y2="0">
      <stop offset="0" stop-color="#F60000" />
      <stop offset="0.17" stop-color="#FF8C00" />
      <stop offset="0.37" stop-color="#FFEE00" />
      <stop offset="0.59" stop-color="#4DE94C" />
      <stop offset="0.794" stop-color="#3783FF" />
      <stop offset="1" stop-color="#4815AA" />
    </linearGradient>
    <g id="group_4">
      <g fill="#FFFFFF" fill-opacity="0.369" filter="url(#filter_2)" transform="translate(23 0)">
        <path d="M556 0C561.524 0 566 4.4764 566 10L566 106C566 111.524 561.524 116 556 116L10 116C4.4764 116 0 111.524 0 106L0 10C0 4.4764 4.4764 0 10 0L556 0Z" />
        <path d="M566 10C566 4.4764 561.524 0 556 0L10 0C4.4764 0 0 4.4764 0 10L0 106C0 111.524 4.4764 116 10 116L556 116C561.524 116 566 111.524 566 106L566 10ZM10 0.999999L556 1Q559.729 1 562.364 3.63576Q565 6.27155 565 10L565 106Q565 109.728 562.364 112.364Q559.729 115 556 115L10 115Q6.27151 115 3.63576 112.364Q1 109.728 1 106L1 10Q1 6.27151 3.63576 3.63576Q6.27152 0.999999 10 0.999999Z" fill="url(#gradient_1)" fill-rule="evenodd" />
      </g>
      <path d="M67.6705 47.625L52.7386 47.625Q51.8864 41.8636 47.8295 38.5739Q43.7727 35.2841 37.7045 35.2841Q29.5909 35.2841 24.6989 41.233Q19.8068 47.1818 19.8068 58.0909Q19.8068 69.2727 24.733 75.0852Q29.6591 80.8977 37.6023 80.8977Q43.5 80.8977 47.5909 77.8125Q51.6818 74.7273 52.7386 69.1364L67.6705 69.2045Q66.8864 75.6136 63.1023 81.2727Q59.3182 86.9318 52.8239 90.4432Q46.3295 93.9545 37.3636 93.9545Q28.0227 93.9545 20.6761 89.7273Q13.3295 85.5 9.08523 77.4886Q4.84091 69.4773 4.84091 58.0909Q4.84091 46.6705 9.13636 38.6591Q13.4318 30.6477 20.7955 26.4375Q28.1591 22.2273 37.3636 22.2273Q45.4432 22.2273 51.9375 25.2102Q58.4318 28.1932 62.5739 33.8693Q66.7159 39.5455 67.6705 47.625ZM89.0114 93L73.1932 93L97.2955 23.1818L116.318 23.1818L140.386 93L124.568 93L119.386 77.0795L94.1932 77.0795L89.0114 93ZM97.9432 65.5568L115.67 65.5568L107.08 39.1364L106.534 39.1364L97.9432 65.5568ZM185.011 43.2614Q184.602 39.1364 181.483 36.8523Q178.364 34.5682 173.08 34.5682Q167.659 34.5682 164.761 36.7841Q161.864 39 161.864 42.375Q161.795 46.125 165.085 48.0511Q168.375 49.9773 172.909 51.0341L179.182 52.5341Q185.25 53.8977 189.972 56.4886Q194.693 59.0795 197.403 63.1534Q200.114 67.2273 200.114 73.0568Q200.08 82.6364 192.938 88.3125Q185.795 93.9886 173.011 93.9886Q160.295 93.9886 152.727 88.1932Q145.159 82.3977 144.886 71.0795L159.17 71.0795Q159.545 76.3295 163.313 78.9716Q167.08 81.6136 172.841 81.6136Q178.466 81.6136 181.824 79.2273Q185.182 76.8409 185.216 73.0227Q185.182 69.4773 182.114 67.5682Q179.045 65.6591 173.352 64.2955L165.75 62.3864Q156.92 60.2727 151.807 55.6705Q146.693 51.0682 146.727 43.3636Q146.693 37.0227 150.119 32.267Q153.545 27.5114 159.545 24.8693Q165.545 22.2273 173.182 22.2273Q180.955 22.2273 186.767 24.8864Q192.58 27.5455 195.818 32.2841Q199.057 37.0227 199.159 43.2614L185.011 43.2614ZM271.602 47.625L256.67 47.625Q255.818 41.8636 251.761 38.5739Q247.705 35.2841 241.636 35.2841Q233.523 35.2841 228.631 41.233Q223.739 47.1818 223.739 58.0909Q223.739 69.2727 228.665 75.0852Q233.591 80.8977 241.534 80.8977Q247.432 80.8977 251.523 77.8125Q255.614 74.7273 256.67 69.1364L271.602 69.2045Q270.818 75.6136 267.034 81.2727Q263.25 86.9318 256.756 90.4432Q250.261 93.9545 241.295 93.9545Q231.955 93.9545 224.608 89.7273Q217.261 85.5 213.017 77.4886Q208.773 69.4773 208.773 58.0909Q208.773 46.6705 213.068 38.6591Q217.364 30.6477 224.727 26.4375Q232.091 22.2273 241.295 22.2273Q249.375 22.2273 255.869 25.2102Q262.364 28.1932 266.506 33.8693Q270.648 39.5455 271.602 47.625ZM292.943 93L277.125 93L301.227 23.1818L320.25 23.1818L344.318 93L328.5 93L323.318 77.0795L298.125 77.0795L292.943 93ZM301.875 65.5568L319.602 65.5568L311.011 39.1364L310.466 39.1364L301.875 65.5568ZM377.455 93L352.705 93L352.705 23.1818L377.659 23.1818Q388.193 23.1818 395.813 27.358Q403.432 31.5341 407.523 39.3409Q411.614 47.1477 411.614 58.0227Q411.614 68.9318 407.506 76.7727Q403.398 84.6136 395.744 88.8068Q388.091 93 377.455 93ZM367.466 80.3523L376.841 80.3523Q386.693 80.3523 391.79 75.0341Q396.886 69.7159 396.886 58.0227Q396.886 46.3977 391.79 41.1136Q386.693 35.8296 376.875 35.8295L367.466 35.8295L367.466 80.3523ZM422.523 93L422.523 23.1818L469.568 23.1818L469.568 35.3523L437.284 35.3523L437.284 51.9886L467.148 51.9886L467.148 64.1591L437.284 64.1591L437.284 80.8295L469.705 80.8295L469.705 93L422.523 93ZM519.205 43.2614Q518.795 39.1364 515.676 36.8523Q512.557 34.5682 507.273 34.5682Q501.852 34.5682 498.955 36.7841Q496.057 39 496.057 42.375Q495.989 46.125 499.278 48.0511Q502.568 49.9773 507.102 51.0341L513.375 52.5341Q519.443 53.8977 524.165 56.4886Q528.886 59.0795 531.597 63.1534Q534.307 67.2273 534.307 73.0568Q534.273 82.6364 527.131 88.3125Q519.989 93.9886 507.205 93.9886Q494.489 93.9886 486.92 88.1932Q479.352 82.3977 479.08 71.0795L493.364 71.0795Q493.739 76.3295 497.506 78.9716Q501.273 81.6136 507.034 81.6136Q512.659 81.6136 516.017 79.2273Q519.375 76.8409 519.409 73.0227Q519.375 69.4773 516.307 67.5682Q513.239 65.6591 507.545 64.2955L499.943 62.3864Q491.114 60.2727 486 55.6705Q480.886 51.0682 480.92 43.3636Q480.886 37.0227 484.313 32.267Q487.739 27.5114 493.739 24.8693Q499.739 22.2273 507.375 22.2273Q515.148 22.2273 520.96 24.8864Q526.773 27.5455 530.011 32.2841Q533.25 37.0227 533.352 43.2614L519.205 43.2614Z" fill="none" fill-opacity="0" stroke-width="3" stroke="url(#gradient_3)" />
    </g>
    <path id="path_5" d="M52.7386 47.625L67.6705 47.625Q66.7159 39.5455 62.5739 33.8693Q58.4318 28.1932 51.9375 25.2102Q45.4432 22.2273 37.3636 22.2273Q28.1591 22.2273 20.7955 26.4375Q13.4318 30.6477 9.13636 38.6591Q4.84091 46.6705 4.84091 58.0909Q4.84091 69.4773 9.08523 77.4886Q13.3295 85.5 20.6761 89.7273Q28.0227 93.9545 37.3636 93.9545Q46.3295 93.9545 52.8239 90.4432Q59.3182 86.9318 63.1023 81.2727Q66.8864 75.6136 67.6705 69.2045L52.7386 69.1364Q51.6818 74.7273 47.5909 77.8125Q43.5 80.8977 37.6023 80.8977Q29.6591 80.8977 24.733 75.0852Q19.8068 69.2727 19.8068 58.0909Q19.8068 47.1818 24.6989 41.233Q29.5909 35.2841 37.7045 35.2841Q43.7727 35.2841 47.8295 38.5739Q51.8864 41.8636 52.7386 47.625ZM181.483 36.8523Q184.602 39.1364 185.011 43.2614L199.159 43.2614Q199.057 37.0227 195.818 32.2841Q192.58 27.5455 186.767 24.8864Q180.955 22.2273 173.182 22.2273Q165.545 22.2273 159.545 24.8693Q153.545 27.5114 150.119 32.267Q146.693 37.0227 146.727 43.3636Q146.693 51.0682 151.807 55.6705Q156.92 60.2727 165.75 62.3864L173.352 64.2955Q179.045 65.6591 182.114 67.5682Q185.182 69.4773 185.216 73.0227Q185.182 76.8409 181.824 79.2273Q178.466 81.6136 172.841 81.6136Q167.08 81.6136 163.313 78.9716Q159.545 76.3295 159.17 71.0795L144.886 71.0795Q145.159 82.3977 152.727 88.1932Q160.295 93.9886 173.011 93.9886Q185.795 93.9886 192.938 88.3125Q200.08 82.6364 200.114 73.0568Q200.114 67.2273 197.403 63.1534Q194.693 59.0795 189.972 56.4886Q185.25 53.8977 179.182 52.5341L172.909 51.0341Q168.375 49.9773 165.085 48.0511Q161.795 46.125 161.864 42.375Q161.864 39 164.761 36.7841Q167.659 34.5682 173.08 34.5682Q178.364 34.5682 181.483 36.8523ZM256.67 47.625L271.602 47.625Q270.648 39.5455 266.506 33.8693Q262.364 28.1932 255.869 25.2102Q249.375 22.2273 241.295 22.2273Q232.091 22.2273 224.727 26.4375Q217.364 30.6477 213.068 38.6591Q208.773 46.6705 208.773 58.0909Q208.773 69.4773 213.017 77.4886Q217.261 85.5 224.608 89.7273Q231.955 93.9545 241.295 93.9545Q250.261 93.9545 256.756 90.4432Q263.25 86.9318 267.034 81.2727Q270.818 75.6136 271.602 69.2045L256.67 69.1364Q255.614 74.7273 251.523 77.8125Q247.432 80.8977 241.534 80.8977Q233.591 80.8977 228.665 75.0852Q223.739 69.2727 223.739 58.0909Q223.739 47.1818 228.631 41.233Q233.523 35.2841 241.636 35.2841Q247.705 35.2841 251.761 38.5739Q255.818 41.8636 256.67 47.625ZM515.676 36.8523Q518.795 39.1364 519.205 43.2614L533.352 43.2614Q533.25 37.0227 530.011 32.2841Q526.773 27.5455 520.96 24.8864Q515.148 22.2273 507.375 22.2273Q499.739 22.2273 493.739 24.8693Q487.739 27.5114 484.313 32.267Q480.886 37.0227 480.92 43.3636Q480.886 51.0682 486 55.6705Q491.114 60.2727 499.943 62.3864L507.545 64.2955Q513.239 65.6591 516.307 67.5682Q519.375 69.4773 519.409 73.0227Q519.375 76.8409 516.017 79.2273Q512.659 81.6136 507.034 81.6136Q501.273 81.6136 497.506 78.9716Q493.739 76.3295 493.364 71.0795L479.08 71.0795Q479.352 82.3977 486.92 88.1932Q494.489 93.9886 507.205 93.9886Q519.989 93.9886 527.131 88.3125Q534.273 82.6364 534.307 73.0568Q534.307 67.2273 531.597 63.1534Q528.886 59.0795 524.165 56.4886Q519.443 53.8977 513.375 52.5341L507.102 51.0341Q502.568 49.9773 499.278 48.0511Q495.989 46.125 496.057 42.375Q496.057 39 498.955 36.7841Q501.852 34.5682 507.273 34.5682Q512.557 34.5682 515.676 36.8523ZM73.1932 93L89.0114 93L94.1932 77.0795L119.386 77.0795L124.568 93L140.386 93L116.318 23.1818L97.2955 23.1818L73.1932 93ZM277.125 93L292.943 93L298.125 77.0795L323.318 77.0795L328.5 93L344.318 93L320.25 23.1818L301.227 23.1818L277.125 93ZM352.705 93L377.455 93Q388.091 93 395.744 88.8068Q403.398 84.6136 407.506 76.7727Q411.614 68.9318 411.614 58.0227Q411.614 47.1477 407.523 39.3409Q403.432 31.5341 395.813 27.358Q388.193 23.1818 377.659 23.1818L352.705 23.1818L352.705 93ZM422.523 23.1818L422.523 93L469.705 93L469.705 80.8295L437.284 80.8295L437.284 64.1591L467.148 64.1591L467.148 51.9886L437.284 51.9886L437.284 35.3523L469.568 35.3523L469.568 23.1818L422.523 23.1818ZM376.841 80.3523L367.466 80.3523L367.466 35.8295L376.875 35.8295Q386.693 35.8296 391.79 41.1136Q396.886 46.3977 396.886 58.0227Q396.886 69.7159 391.79 75.0341Q386.693 80.3523 376.841 80.3523ZM115.67 65.5568L97.9432 65.5568L106.534 39.1364L107.08 39.1364L115.67 65.5568ZM319.602 65.5568L301.875 65.5568L310.466 39.1364L311.011 39.1364L319.602 65.5568Z" />
    <clipPath id="clip_path_6" transform="translate(37 0)">
      <use p4:href="#path_5" xmlns:p4="http://www.w3.org/1999/xlink" />
    </clipPath>
    <filter color-interpolation-filters="sRGB" x="-537" y="-114" width="539" height="116" id="filter_7">
      <feFlood flood-opacity="0" result="BackgroundImageFix_1" />
      <feBlend mode="normal" in="SourceGraphic" in2="BackgroundImageFix_1" result="Shape_2" />
      <feGaussianBlur stdDeviation="25" />
    </filter>
    <filter color-interpolation-filters="sRGB" x="-537" y="-114" width="539" height="116" id="filter_8">
      <feFlood flood-opacity="0" result="BackgroundImageFix_1" />
      <feBlend mode="normal" in="SourceGraphic" in2="BackgroundImageFix_1" result="Shape_2" />
      <feGaussianBlur stdDeviation="25" />
    </filter>
    <filter color-interpolation-filters="sRGB" x="-537" y="-114" width="539" height="116" id="filter_9">
      <feFlood flood-opacity="0" result="BackgroundImageFix_1" />
      <feBlend mode="normal" in="SourceGraphic" in2="BackgroundImageFix_1" result="Shape_2" />
      <feGaussianBlur stdDeviation="2.5" />
    </filter>
    <radialGradient id="gradient_10" gradientUnits="userSpaceOnUse" cx="0" cy="0" r="1" gradientTransform="matrix(0 58 -269.5 0 269.5 58)">
      <stop offset="0" stop-color="#FFFFFF" />
      <stop offset="1" stop-color="#FFFFFF" stop-opacity="0.898" />
    </radialGradient>
  </defs>
  <g>
    <g fill="#FFFFFF" fill-opacity="0.369" filter="url(#filter_2)" transform="translate(23 0)">
      <path d="M556 0C561.524 0 566 4.4764 566 10L566 106C566 111.524 561.524 116 556 116L10 116C4.4764 116 0 111.524 0 106L0 10C0 4.4764 4.4764 0 10 0L556 0Z" />
      <path d="M566 10C566 4.4764 561.524 0 556 0L10 0C4.4764 0 0 4.4764 0 10L0 106C0 111.524 4.4764 116 10 116L556 116C561.524 116 566 111.524 566 106L566 10ZM10 0.999999L556 1Q559.729 1 562.364 3.63576Q565 6.27155 565 10L565 106Q565 109.728 562.364 112.364Q559.729 115 556 115L10 115Q6.27151 115 3.63576 112.364Q1 109.728 1 106L1 10Q1 6.27151 3.63576 3.63576Q6.27152 0.999999 10 0.999999Z" fill="url(#gradient_1)" fill-rule="evenodd" />
    </g>
    <path d="M67.6705 47.625L52.7386 47.625Q51.8864 41.8636 47.8295 38.5739Q43.7727 35.2841 37.7045 35.2841Q29.5909 35.2841 24.6989 41.233Q19.8068 47.1818 19.8068 58.0909Q19.8068 69.2727 24.733 75.0852Q29.6591 80.8977 37.6023 80.8977Q43.5 80.8977 47.5909 77.8125Q51.6818 74.7273 52.7386 69.1364L67.6705 69.2045Q66.8864 75.6136 63.1023 81.2727Q59.3182 86.9318 52.8239 90.4432Q46.3295 93.9545 37.3636 93.9545Q28.0227 93.9545 20.6761 89.7273Q13.3295 85.5 9.08523 77.4886Q4.84091 69.4773 4.84091 58.0909Q4.84091 46.6705 9.13636 38.6591Q13.4318 30.6477 20.7955 26.4375Q28.1591 22.2273 37.3636 22.2273Q45.4432 22.2273 51.9375 25.2102Q58.4318 28.1932 62.5739 33.8693Q66.7159 39.5455 67.6705 47.625ZM89.0114 93L73.1932 93L97.2955 23.1818L116.318 23.1818L140.386 93L124.568 93L119.386 77.0795L94.1932 77.0795L89.0114 93ZM97.9432 65.5568L115.67 65.5568L107.08 39.1364L106.534 39.1364L97.9432 65.5568ZM185.011 43.2614Q184.602 39.1364 181.483 36.8523Q178.364 34.5682 173.08 34.5682Q167.659 34.5682 164.761 36.7841Q161.864 39 161.864 42.375Q161.795 46.125 165.085 48.0511Q168.375 49.9773 172.909 51.0341L179.182 52.5341Q185.25 53.8977 189.972 56.4886Q194.693 59.0795 197.403 63.1534Q200.114 67.2273 200.114 73.0568Q200.08 82.6364 192.938 88.3125Q185.795 93.9886 173.011 93.9886Q160.295 93.9886 152.727 88.1932Q145.159 82.3977 144.886 71.0795L159.17 71.0795Q159.545 76.3295 163.313 78.9716Q167.08 81.6136 172.841 81.6136Q178.466 81.6136 181.824 79.2273Q185.182 76.8409 185.216 73.0227Q185.182 69.4773 182.114 67.5682Q179.045 65.6591 173.352 64.2955L165.75 62.3864Q156.92 60.2727 151.807 55.6705Q146.693 51.0682 146.727 43.3636Q146.693 37.0227 150.119 32.267Q153.545 27.5114 159.545 24.8693Q165.545 22.2273 173.182 22.2273Q180.955 22.2273 186.767 24.8864Q192.58 27.5455 195.818 32.2841Q199.057 37.0227 199.159 43.2614L185.011 43.2614ZM271.602 47.625L256.67 47.625Q255.818 41.8636 251.761 38.5739Q247.705 35.2841 241.636 35.2841Q233.523 35.2841 228.631 41.233Q223.739 47.1818 223.739 58.0909Q223.739 69.2727 228.665 75.0852Q233.591 80.8977 241.534 80.8977Q247.432 80.8977 251.523 77.8125Q255.614 74.7273 256.67 69.1364L271.602 69.2045Q270.818 75.6136 267.034 81.2727Q263.25 86.9318 256.756 90.4432Q250.261 93.9545 241.295 93.9545Q231.955 93.9545 224.608 89.7273Q217.261 85.5 213.017 77.4886Q208.773 69.4773 208.773 58.0909Q208.773 46.6705 213.068 38.6591Q217.364 30.6477 224.727 26.4375Q232.091 22.2273 241.295 22.2273Q249.375 22.2273 255.869 25.2102Q262.364 28.1932 266.506 33.8693Q270.648 39.5455 271.602 47.625ZM292.943 93L277.125 93L301.227 23.1818L320.25 23.1818L344.318 93L328.5 93L323.318 77.0795L298.125 77.0795L292.943 93ZM301.875 65.5568L319.602 65.5568L311.011 39.1364L310.466 39.1364L301.875 65.5568ZM377.455 93L352.705 93L352.705 23.1818L377.659 23.1818Q388.193 23.1818 395.813 27.358Q403.432 31.5341 407.523 39.3409Q411.614 47.1477 411.614 58.0227Q411.614 68.9318 407.506 76.7727Q403.398 84.6136 395.744 88.8068Q388.091 93 377.455 93ZM367.466 80.3523L376.841 80.3523Q386.693 80.3523 391.79 75.0341Q396.886 69.7159 396.886 58.0227Q396.886 46.3977 391.79 41.1136Q386.693 35.8296 376.875 35.8295L367.466 35.8295L367.466 80.3523ZM422.523 93L422.523 23.1818L469.568 23.1818L469.568 35.3523L437.284 35.3523L437.284 51.9886L467.148 51.9886L467.148 64.1591L437.284 64.1591L437.284 80.8295L469.705 80.8295L469.705 93L422.523 93ZM519.205 43.2614Q518.795 39.1364 515.676 36.8523Q512.557 34.5682 507.273 34.5682Q501.852 34.5682 498.955 36.7841Q496.057 39 496.057 42.375Q495.989 46.125 499.278 48.0511Q502.568 49.9773 507.102 51.0341L513.375 52.5341Q519.443 53.8977 524.165 56.4886Q528.886 59.0795 531.597 63.1534Q534.307 67.2273 534.307 73.0568Q534.273 82.6364 527.131 88.3125Q519.989 93.9886 507.205 93.9886Q494.489 93.9886 486.92 88.1932Q479.352 82.3977 479.08 71.0795L493.364 71.0795Q493.739 76.3295 497.506 78.9716Q501.273 81.6136 507.034 81.6136Q512.659 81.6136 516.017 79.2273Q519.375 76.8409 519.409 73.0227Q519.375 69.4773 516.307 67.5682Q513.239 65.6591 507.545 64.2955L499.943 62.3864Q491.114 60.2727 486 55.6705Q480.886 51.0682 480.92 43.3636Q480.886 37.0227 484.313 32.267Q487.739 27.5114 493.739 24.8693Q499.739 22.2273 507.375 22.2273Q515.148 22.2273 520.96 24.8864Q526.773 27.5455 530.011 32.2841Q533.25 37.0227 533.352 43.2614L519.205 43.2614Z" fill="none" fill-opacity="0" stroke-width="3" stroke="url(#gradient_3)" transform="translate(37 0)" />
    <use p3:href="#group_4" clip-path="url(#clip_path_6)" filter="url(#filter_7)" xmlns:p3="http://www.w3.org/1999/xlink" />
    <g filter="url(#filter_8)" transform="translate(37 0)">
      <g>
        <path d="M67.6705 47.625L52.7386 47.625Q51.8864 41.8636 47.8295 38.5739Q43.7727 35.2841 37.7045 35.2841Q29.5909 35.2841 24.6989 41.233Q19.8068 47.1818 19.8068 58.0909Q19.8068 69.2727 24.733 75.0852Q29.6591 80.8977 37.6023 80.8977Q43.5 80.8977 47.5909 77.8125Q51.6818 74.7273 52.7386 69.1364L67.6705 69.2045Q66.8864 75.6136 63.1023 81.2727Q59.3182 86.9318 52.8239 90.4432Q46.3295 93.9545 37.3636 93.9545Q28.0227 93.9545 20.6761 89.7273Q13.3295 85.5 9.08523 77.4886Q4.84091 69.4773 4.84091 58.0909Q4.84091 46.6705 9.13636 38.6591Q13.4318 30.6477 20.7955 26.4375Q28.1591 22.2273 37.3636 22.2273Q45.4432 22.2273 51.9375 25.2102Q58.4318 28.1932 62.5739 33.8693Q66.7159 39.5455 67.6705 47.625ZM89.0114 93L73.1932 93L97.2955 23.1818L116.318 23.1818L140.386 93L124.568 93L119.386 77.0795L94.1932 77.0795L89.0114 93ZM97.9432 65.5568L115.67 65.5568L107.08 39.1364L106.534 39.1364L97.9432 65.5568ZM185.011 43.2614Q184.602 39.1364 181.483 36.8523Q178.364 34.5682 173.08 34.5682Q167.659 34.5682 164.761 36.7841Q161.864 39 161.864 42.375Q161.795 46.125 165.085 48.0511Q168.375 49.9773 172.909 51.0341L179.182 52.5341Q185.25 53.8977 189.972 56.4886Q194.693 59.0795 197.403 63.1534Q200.114 67.2273 200.114 73.0568Q200.08 82.6364 192.938 88.3125Q185.795 93.9886 173.011 93.9886Q160.295 93.9886 152.727 88.1932Q145.159 82.3977 144.886 71.0795L159.17 71.0795Q159.545 76.3295 163.313 78.9716Q167.08 81.6136 172.841 81.6136Q178.466 81.6136 181.824 79.2273Q185.182 76.8409 185.216 73.0227Q185.182 69.4773 182.114 67.5682Q179.045 65.6591 173.352 64.2955L165.75 62.3864Q156.92 60.2727 151.807 55.6705Q146.693 51.0682 146.727 43.3636Q146.693 37.0227 150.119 32.267Q153.545 27.5114 159.545 24.8693Q165.545 22.2273 173.182 22.2273Q180.955 22.2273 186.767 24.8864Q192.58 27.5455 195.818 32.2841Q199.057 37.0227 199.159 43.2614L185.011 43.2614ZM271.602 47.625L256.67 47.625Q255.818 41.8636 251.761 38.5739Q247.705 35.2841 241.636 35.2841Q233.523 35.2841 228.631 41.233Q223.739 47.1818 223.739 58.0909Q223.739 69.2727 228.665 75.0852Q233.591 80.8977 241.534 80.8977Q247.432 80.8977 251.523 77.8125Q255.614 74.7273 256.67 69.1364L271.602 69.2045Q270.818 75.6136 267.034 81.2727Q263.25 86.9318 256.756 90.4432Q250.261 93.9545 241.295 93.9545Q231.955 93.9545 224.608 89.7273Q217.261 85.5 213.017 77.4886Q208.773 69.4773 208.773 58.0909Q208.773 46.6705 213.068 38.6591Q217.364 30.6477 224.727 26.4375Q232.091 22.2273 241.295 22.2273Q249.375 22.2273 255.869 25.2102Q262.364 28.1932 266.506 33.8693Q270.648 39.5455 271.602 47.625ZM292.943 93L277.125 93L301.227 23.1818L320.25 23.1818L344.318 93L328.5 93L323.318 77.0795L298.125 77.0795L292.943 93ZM301.875 65.5568L319.602 65.5568L311.011 39.1364L310.466 39.1364L301.875 65.5568ZM377.455 93L352.705 93L352.705 23.1818L377.659 23.1818Q388.193 23.1818 395.813 27.358Q403.432 31.5341 407.523 39.3409Q411.614 47.1477 411.614 58.0227Q411.614 68.9318 407.506 76.7727Q403.398 84.6136 395.744 88.8068Q388.091 93 377.455 93ZM367.466 80.3523L376.841 80.3523Q386.693 80.3523 391.79 75.0341Q396.886 69.7159 396.886 58.0227Q396.886 46.3977 391.79 41.1136Q386.693 35.8296 376.875 35.8295L367.466 35.8295L367.466 80.3523ZM422.523 93L422.523 23.1818L469.568 23.1818L469.568 35.3523L437.284 35.3523L437.284 51.9886L467.148 51.9886L467.148 64.1591L437.284 64.1591L437.284 80.8295L469.705 80.8295L469.705 93L422.523 93ZM519.205 43.2614Q518.795 39.1364 515.676 36.8523Q512.557 34.5682 507.273 34.5682Q501.852 34.5682 498.955 36.7841Q496.057 39 496.057 42.375Q495.989 46.125 499.278 48.0511Q502.568 49.9773 507.102 51.0341L513.375 52.5341Q519.443 53.8977 524.165 56.4886Q528.886 59.0795 531.597 63.1534Q534.307 67.2273 534.307 73.0568Q534.273 82.6364 527.131 88.3125Q519.989 93.9886 507.205 93.9886Q494.489 93.9886 486.92 88.1932Q479.352 82.3977 479.08 71.0795L493.364 71.0795Q493.739 76.3295 497.506 78.9716Q501.273 81.6136 507.034 81.6136Q512.659 81.6136 516.017 79.2273Q519.375 76.8409 519.409 73.0227Q519.375 69.4773 516.307 67.5682Q513.239 65.6591 507.545 64.2955L499.943 62.3864Q491.114 60.2727 486 55.6705Q480.886 51.0682 480.92 43.3636Q480.886 37.0227 484.313 32.267Q487.739 27.5114 493.739 24.8693Q499.739 22.2273 507.375 22.2273Q515.148 22.2273 520.96 24.8864Q526.773 27.5455 530.011 32.2841Q533.25 37.0227 533.352 43.2614L519.205 43.2614Z" fill="#FFFFFF" fill-opacity="0" />
      </g>
      <path d="M47.1498 47.625L68.0458 47.625L67.6497 44.273Q66.6029 35.4124 61.9972 29.1009Q57.3944 22.7933 50.1897 19.484Q43.0992 16.2273 34.3636 16.2273Q24.362 16.2273 16.3064 20.8331Q8.19492 25.471 3.49242 34.2415Q-1.15909 42.9169 -1.15909 55.0909Q-1.15909 67.2229 3.43428 75.8931Q8.08353 84.6688 16.1799 89.3275Q24.2212 93.9546 34.3636 93.9545Q44.0887 93.9546 51.2507 90.0821Q58.3989 86.2173 62.5961 79.9403Q66.7774 73.6872 67.6483 66.5688L68.058 63.22L47.2547 63.125L46.7908 65.5792Q45.9494 70.0304 42.7845 72.4173Q39.4956 74.8977 34.6023 74.8977Q28.049 74.8977 24.0216 70.1456Q19.8068 65.1725 19.8068 55.0909Q19.8068 45.2569 24.016 40.1384Q28.008 35.2841 34.7045 35.2841Q39.7092 35.2841 42.94 37.904Q46.0896 40.4581 46.7709 45.064L47.1498 47.625ZM170.08 34.5682Q174.383 34.5682 176.711 36.2727Q178.749 37.7654 179.026 40.5574L179.294 43.2614L199.209 43.2614L199.159 40.2122Q199.042 33.0733 195.295 27.5913Q191.586 22.1643 185.015 19.1583Q178.608 16.2273 170.182 16.2273Q161.914 16.2273 155.336 19.1237Q148.589 22.0949 144.685 27.5134Q140.688 33.0618 140.727 40.3798Q140.687 49.399 146.8 54.9003Q152.48 60.0128 162.052 62.3039L169.622 64.2051Q174.874 65.4632 177.529 67.1153Q179.198 68.1539 179.216 70.0516Q179.196 72.2827 177.086 73.7819Q174.509 75.6136 169.841 75.6136Q165.027 75.6136 162.035 73.5155Q159.436 71.6927 159.163 67.8658L158.964 65.0795L138.813 65.0795L138.887 68.1518Q139.195 80.9061 147.903 87.575Q156.279 93.9886 170.011 93.9886Q183.842 93.9886 191.804 87.6611Q200.074 81.0883 200.114 70.0675Q200.114 63.3206 196.901 58.4917Q193.783 53.8041 188.415 50.8586Q183.321 48.0637 176.84 46.6071L170.607 45.1164Q166.499 44.1588 163.601 42.4622Q161.827 41.4235 161.863 39.4295Q161.864 37.4825 163.584 36.1672Q165.675 34.5682 170.08 34.5682ZM251.082 47.625L271.978 47.625L271.582 44.273Q270.535 35.4124 265.929 29.1009Q261.326 22.7933 254.122 19.484Q247.031 16.2273 238.295 16.2273Q228.294 16.2273 220.238 20.8331Q212.127 25.4709 207.424 34.2415Q202.773 42.9169 202.773 55.0909Q202.773 67.2229 207.366 75.8931Q212.015 84.6688 220.112 89.3275Q228.153 93.9546 238.295 93.9545Q248.02 93.9545 255.183 90.0821Q262.331 86.2173 266.528 79.9403Q270.709 73.6873 271.58 66.5689L271.99 63.22L251.187 63.125L250.723 65.5792Q249.881 70.0304 246.716 72.4173Q243.427 74.8977 238.534 74.8977Q231.981 74.8977 227.953 70.1456Q223.739 65.1725 223.739 55.0909Q223.739 45.2569 227.948 40.1384Q231.94 35.2841 238.636 35.2841Q243.641 35.2841 246.872 37.904Q250.021 40.4581 250.703 45.064L251.082 47.625ZM504.273 34.5682Q508.576 34.5682 510.904 36.2727Q512.942 37.7654 513.219 40.5574L513.487 43.2614L533.402 43.2614L533.352 40.2122Q533.235 33.0734 529.488 27.5913Q525.779 22.1643 519.208 19.1583Q512.801 16.2273 504.375 16.2273Q496.107 16.2273 489.53 19.1237Q482.782 22.095 478.878 27.5134Q474.881 33.0619 474.92 40.3797Q474.88 49.3989 480.993 54.9003Q486.673 60.0127 496.245 62.3039L503.815 64.2051Q509.067 65.4633 511.722 67.1153Q513.391 68.1538 513.409 70.0515Q513.389 72.2827 511.279 73.7819Q508.702 75.6136 504.034 75.6136Q499.22 75.6136 496.228 73.5155Q493.629 71.6926 493.356 67.8658L493.157 65.0795L473.006 65.0795L473.08 68.1518Q473.388 80.9061 482.096 87.575Q490.472 93.9886 504.205 93.9886Q518.036 93.9886 525.997 87.6611Q534.268 81.0883 534.307 70.0675Q534.307 63.3206 531.094 58.4917Q527.976 53.8041 522.608 50.8586Q517.515 48.0637 511.033 46.6071L504.8 45.1164Q500.692 44.1587 497.794 42.4622Q496.02 41.4235 496.056 39.4295Q496.057 37.4825 497.777 36.1672Q499.868 34.5682 504.273 34.5682ZM115.457 17.1818L92.1574 17.1818L65.9838 93L88.1898 93L93.3716 77.0795L114.208 77.0795L119.39 93L141.594 93L115.457 17.1818ZM116.386 74.0795L121.568 90L137.386 90L136.352 87L113.318 20.1818L94.2955 20.1818L71.2288 87L70.1932 90L86.0114 90L91.1932 74.0795L116.386 74.0795ZM319.389 17.1818L296.089 17.1818L269.916 93L292.122 93L297.303 77.0795L318.14 77.0795L323.322 93L345.526 93L319.389 17.1818ZM320.318 74.0795L325.5 90L341.318 90L340.284 87L317.25 20.1818L298.227 20.1818L275.161 87L274.125 90L289.943 90L295.125 74.0795L320.318 74.0795ZM374.659 17.1818L346.705 17.1818L346.705 93L374.455 93Q385.859 93 394.186 88.4378Q402.634 83.809 407.163 75.165Q411.614 66.6701 411.614 55.0227Q411.614 43.4094 407.18 34.9484Q402.668 26.3389 394.254 21.7272Q385.961 17.1818 374.659 17.1818ZM469.568 17.1818L416.523 17.1818L416.523 93L469.705 93L469.705 74.8295L437.284 74.8295L437.284 64.1591L467.148 64.1591L467.148 45.9886L437.284 45.9886L437.284 35.3523L469.568 35.3523L469.568 17.1818ZM434.284 35.3523L434.284 32.3523L466.568 32.3523L466.568 20.1818L419.523 20.1818L419.523 90L466.705 90L466.705 77.8295L434.284 77.8295L434.284 61.1591L464.148 61.1591L464.148 48.9886L434.284 48.9886L434.284 35.3523ZM61.6478 44.625L49.7386 44.625Q48.8864 38.8636 44.8295 35.5739Q40.7727 32.2841 34.7045 32.2841Q26.5909 32.2841 21.6989 38.233Q16.8068 44.1818 16.8068 55.0909Q16.8068 66.2727 21.733 72.0852Q26.6591 77.8977 34.6023 77.8977Q40.5 77.8977 44.5909 74.8125Q48.6818 71.7273 49.7386 66.1364L61.6471 66.1907L64.6705 66.2045Q64.4845 67.7244 64.1299 69.2021Q62.989 73.9556 60.1023 78.2727Q56.3182 83.9318 49.8239 87.4432Q43.3295 90.9545 34.3636 90.9545Q25.0227 90.9545 17.6761 86.7273Q10.3295 82.5 6.08523 74.4886Q1.84091 66.4773 1.84091 55.0909Q1.84091 43.6705 6.13636 35.6591Q10.4318 27.6477 17.7955 23.4375Q25.1591 19.2273 34.3636 19.2273Q42.4432 19.2273 48.9375 22.2102Q55.4318 25.1932 59.5739 30.8693Q62.9244 35.4608 64.1893 41.625Q64.4881 43.0811 64.6705 44.625L61.6478 44.625ZM182.011 40.2614Q181.602 36.1364 178.483 33.8523Q175.364 31.5682 170.08 31.5682Q164.659 31.5682 161.761 33.7841Q158.864 36 158.864 39.375Q158.795 43.125 162.085 45.0511Q165.375 46.9773 169.909 48.0341L176.182 49.5341Q182.25 50.8977 186.972 53.4886Q191.693 56.0795 194.403 60.1534Q197.114 64.2273 197.114 70.0568Q197.08 79.6364 189.938 85.3125Q182.795 90.9886 170.011 90.9886Q157.295 90.9886 149.727 85.1932Q143.197 80.1924 142.098 71.0795Q141.924 69.6314 141.886 68.0795L156.17 68.0795Q156.545 73.3295 160.313 75.9716Q164.08 78.6136 169.841 78.6136Q175.466 78.6136 178.824 76.2273Q182.182 73.8409 182.216 70.0227Q182.182 66.4773 179.114 64.5682Q176.045 62.6591 170.352 61.2955L162.75 59.3864Q153.92 57.2727 148.807 52.6705Q143.693 48.0682 143.727 40.3636Q143.693 34.0227 147.119 29.267Q150.545 24.5114 156.545 21.8693Q162.545 19.2273 170.182 19.2273Q177.955 19.2273 183.767 21.8864Q189.58 24.5455 192.818 29.2841Q195.254 32.8484 195.916 37.2614Q196.134 38.7153 196.159 40.2614L182.011 40.2614ZM265.58 44.625L253.67 44.625Q252.818 38.8636 248.761 35.5739Q244.705 32.2841 238.636 32.2841Q230.523 32.2841 225.631 38.233Q220.739 44.1818 220.739 55.0909Q220.739 66.2727 225.665 72.0852Q230.591 77.8977 238.534 77.8977Q244.432 77.8977 248.523 74.8125Q252.614 71.7273 253.67 66.1364L265.579 66.1907L268.602 66.2045Q268.416 67.7243 268.062 69.2021Q266.921 73.9557 264.034 78.2727Q260.25 83.9318 253.756 87.4432Q247.261 90.9545 238.295 90.9545Q228.955 90.9545 221.608 86.7273Q214.261 82.5 210.017 74.4886Q205.773 66.4773 205.773 55.0909Q205.773 43.6705 210.068 35.6591Q214.364 27.6477 221.727 23.4375Q229.091 19.2273 238.295 19.2273Q246.375 19.2273 252.869 22.2102Q259.364 25.1932 263.506 30.8693Q266.856 35.4608 268.121 41.625Q268.42 43.0812 268.602 44.625L265.58 44.625ZM516.205 40.2614Q515.795 36.1364 512.676 33.8523Q509.557 31.5682 504.273 31.5682Q498.852 31.5682 495.955 33.7841Q493.057 36 493.057 39.375Q492.989 43.125 496.278 45.0511Q499.568 46.9773 504.102 48.0341L510.375 49.5341Q516.443 50.8977 521.165 53.4886Q525.886 56.0795 528.597 60.1534Q531.307 64.2273 531.307 70.0568Q531.273 79.6364 524.131 85.3125Q516.989 90.9886 504.205 90.9886Q491.489 90.9886 483.92 85.1932Q477.39 80.1924 476.292 71.0795Q476.117 69.6313 476.08 68.0795L490.364 68.0795Q490.739 73.3295 494.506 75.9716Q498.273 78.6136 504.034 78.6136Q509.659 78.6136 513.017 76.2273Q516.375 73.8409 516.409 70.0227Q516.375 66.4773 513.307 64.5682Q510.239 62.6591 504.545 61.2955L496.943 59.3864Q488.114 57.2727 483 52.6705Q477.886 48.0682 477.92 40.3636Q477.886 34.0227 481.313 29.267Q484.739 24.5114 490.739 21.8693Q496.739 19.2273 504.375 19.2273Q512.148 19.2273 517.96 21.8864Q523.773 24.5455 527.011 29.2841Q529.447 32.8484 530.109 37.2614Q530.327 38.7152 530.352 40.2614L516.205 40.2614ZM352.705 20.1818L374.659 20.1818Q385.193 20.1818 392.813 24.358Q400.432 28.5341 404.523 36.3409Q408.614 44.1477 408.614 55.0227Q408.614 65.9318 404.506 73.7727Q400.398 81.6136 392.744 85.8068Q385.091 90 374.455 90L349.705 90L349.705 20.1818L352.705 20.1818ZM386.624 69.9584Q382.413 74.3523 373.841 74.3523L367.466 74.3523L367.466 35.8295L373.875 35.8295Q382.419 35.8296 386.63 40.1963Q390.886 44.6087 390.886 55.0227Q390.886 65.5105 386.624 69.9584ZM364.466 35.8295L364.466 32.8295L373.875 32.8295Q383.693 32.8296 388.79 38.1136Q393.886 43.3977 393.886 55.0227Q393.886 66.7159 388.79 72.0341Q383.693 77.3523 373.841 77.3523L364.466 77.3523L364.466 35.8295ZM111.695 59.5568L112.67 62.5568L94.9432 62.5568L95.9187 59.5568L102.23 40.1484L103.47 36.3347L103.534 36.1364L104.08 36.1364L104.144 36.3347L105.384 40.1484L111.695 59.5568ZM108.54 59.5568L99.0733 59.5568L103.807 44.9993L108.54 59.5568ZM315.627 59.5568L316.602 62.5568L298.875 62.5568L299.85 59.5568L306.161 40.1485L307.401 36.3347L307.466 36.1364L308.011 36.1364L308.076 36.3347L309.316 40.1485L315.627 59.5568ZM312.472 59.5568L303.005 59.5568L307.739 44.9993L312.472 59.5568Z" fill="url(#gradient_3)" fill-rule="evenodd" />
    </g>
    <g filter="url(#filter_9)" transform="translate(37 0)">
      <g>
        <path d="M67.6705 47.625L52.7386 47.625Q51.8864 41.8636 47.8295 38.5739Q43.7727 35.2841 37.7045 35.2841Q29.5909 35.2841 24.6989 41.233Q19.8068 47.1818 19.8068 58.0909Q19.8068 69.2727 24.733 75.0852Q29.6591 80.8977 37.6023 80.8977Q43.5 80.8977 47.5909 77.8125Q51.6818 74.7273 52.7386 69.1364L67.6705 69.2045Q66.8864 75.6136 63.1023 81.2727Q59.3182 86.9318 52.8239 90.4432Q46.3295 93.9545 37.3636 93.9545Q28.0227 93.9545 20.6761 89.7273Q13.3295 85.5 9.08523 77.4886Q4.84091 69.4773 4.84091 58.0909Q4.84091 46.6705 9.13636 38.6591Q13.4318 30.6477 20.7955 26.4375Q28.1591 22.2273 37.3636 22.2273Q45.4432 22.2273 51.9375 25.2102Q58.4318 28.1932 62.5739 33.8693Q66.7159 39.5455 67.6705 47.625ZM89.0114 93L73.1932 93L97.2955 23.1818L116.318 23.1818L140.386 93L124.568 93L119.386 77.0795L94.1932 77.0795L89.0114 93ZM97.9432 65.5568L115.67 65.5568L107.08 39.1364L106.534 39.1364L97.9432 65.5568ZM185.011 43.2614Q184.602 39.1364 181.483 36.8523Q178.364 34.5682 173.08 34.5682Q167.659 34.5682 164.761 36.7841Q161.864 39 161.864 42.375Q161.795 46.125 165.085 48.0511Q168.375 49.9773 172.909 51.0341L179.182 52.5341Q185.25 53.8977 189.972 56.4886Q194.693 59.0795 197.403 63.1534Q200.114 67.2273 200.114 73.0568Q200.08 82.6364 192.938 88.3125Q185.795 93.9886 173.011 93.9886Q160.295 93.9886 152.727 88.1932Q145.159 82.3977 144.886 71.0795L159.17 71.0795Q159.545 76.3295 163.313 78.9716Q167.08 81.6136 172.841 81.6136Q178.466 81.6136 181.824 79.2273Q185.182 76.8409 185.216 73.0227Q185.182 69.4773 182.114 67.5682Q179.045 65.6591 173.352 64.2955L165.75 62.3864Q156.92 60.2727 151.807 55.6705Q146.693 51.0682 146.727 43.3636Q146.693 37.0227 150.119 32.267Q153.545 27.5114 159.545 24.8693Q165.545 22.2273 173.182 22.2273Q180.955 22.2273 186.767 24.8864Q192.58 27.5455 195.818 32.2841Q199.057 37.0227 199.159 43.2614L185.011 43.2614ZM271.602 47.625L256.67 47.625Q255.818 41.8636 251.761 38.5739Q247.705 35.2841 241.636 35.2841Q233.523 35.2841 228.631 41.233Q223.739 47.1818 223.739 58.0909Q223.739 69.2727 228.665 75.0852Q233.591 80.8977 241.534 80.8977Q247.432 80.8977 251.523 77.8125Q255.614 74.7273 256.67 69.1364L271.602 69.2045Q270.818 75.6136 267.034 81.2727Q263.25 86.9318 256.756 90.4432Q250.261 93.9545 241.295 93.9545Q231.955 93.9545 224.608 89.7273Q217.261 85.5 213.017 77.4886Q208.773 69.4773 208.773 58.0909Q208.773 46.6705 213.068 38.6591Q217.364 30.6477 224.727 26.4375Q232.091 22.2273 241.295 22.2273Q249.375 22.2273 255.869 25.2102Q262.364 28.1932 266.506 33.8693Q270.648 39.5455 271.602 47.625ZM292.943 93L277.125 93L301.227 23.1818L320.25 23.1818L344.318 93L328.5 93L323.318 77.0795L298.125 77.0795L292.943 93ZM301.875 65.5568L319.602 65.5568L311.011 39.1364L310.466 39.1364L301.875 65.5568ZM377.455 93L352.705 93L352.705 23.1818L377.659 23.1818Q388.193 23.1818 395.813 27.358Q403.432 31.5341 407.523 39.3409Q411.614 47.1477 411.614 58.0227Q411.614 68.9318 407.506 76.7727Q403.398 84.6136 395.744 88.8068Q388.091 93 377.455 93ZM367.466 80.3523L376.841 80.3523Q386.693 80.3523 391.79 75.0341Q396.886 69.7159 396.886 58.0227Q396.886 46.3977 391.79 41.1136Q386.693 35.8296 376.875 35.8295L367.466 35.8295L367.466 80.3523ZM422.523 93L422.523 23.1818L469.568 23.1818L469.568 35.3523L437.284 35.3523L437.284 51.9886L467.148 51.9886L467.148 64.1591L437.284 64.1591L437.284 80.8295L469.705 80.8295L469.705 93L422.523 93ZM519.205 43.2614Q518.795 39.1364 515.676 36.8523Q512.557 34.5682 507.273 34.5682Q501.852 34.5682 498.955 36.7841Q496.057 39 496.057 42.375Q495.989 46.125 499.278 48.0511Q502.568 49.9773 507.102 51.0341L513.375 52.5341Q519.443 53.8977 524.165 56.4886Q528.886 59.0795 531.597 63.1534Q534.307 67.2273 534.307 73.0568Q534.273 82.6364 527.131 88.3125Q519.989 93.9886 507.205 93.9886Q494.489 93.9886 486.92 88.1932Q479.352 82.3977 479.08 71.0795L493.364 71.0795Q493.739 76.3295 497.506 78.9716Q501.273 81.6136 507.034 81.6136Q512.659 81.6136 516.017 79.2273Q519.375 76.8409 519.409 73.0227Q519.375 69.4773 516.307 67.5682Q513.239 65.6591 507.545 64.2955L499.943 62.3864Q491.114 60.2727 486 55.6705Q480.886 51.0682 480.92 43.3636Q480.886 37.0227 484.313 32.267Q487.739 27.5114 493.739 24.8693Q499.739 22.2273 507.375 22.2273Q515.148 22.2273 520.96 24.8864Q526.773 27.5455 530.011 32.2841Q533.25 37.0227 533.352 43.2614L519.205 43.2614Z" fill="#FFFFFF" fill-opacity="0" />
      </g>
      <path d="M119.386 77.0795L124.568 93L140.386 93L139.352 90L116.318 23.1818L97.2955 23.1818L74.2288 90L73.1932 93L89.0114 93L94.1932 77.0795L119.386 77.0795ZM86.8329 90L92.0147 74.0795L121.565 74.0795L126.747 90L136.179 90L114.179 26.1818L99.4335 26.1818L77.4026 90L86.8329 90ZM323.318 77.0795L328.5 93L344.318 93L343.284 90L320.25 23.1818L301.227 23.1818L278.161 90L277.125 93L292.943 93L298.125 77.0795L323.318 77.0795ZM290.765 90L295.947 74.0795L325.497 74.0795L330.678 90L340.111 90L318.111 26.1818L303.365 26.1818L281.334 90L290.765 90ZM440.284 35.3523L469.568 35.3523L469.568 23.1818L422.523 23.1818L422.523 93L469.705 93L469.705 80.8295L437.284 80.8295L437.284 64.1591L467.148 64.1591L467.148 51.9886L437.284 51.9886L437.284 35.3523L440.284 35.3523ZM464.148 54.9886L434.284 54.9886L434.284 32.3523L466.568 32.3523L466.568 26.1818L425.523 26.1818L425.523 90L466.705 90L466.705 83.8295L434.284 83.8295L434.284 61.1591L464.148 61.1591L464.148 54.9886ZM64.6478 47.625L52.7386 47.625Q51.8864 41.8636 47.8295 38.5739Q43.7727 35.2841 37.7045 35.2841Q29.5909 35.2841 24.6989 41.233Q19.8068 47.1818 19.8068 58.0909Q19.8068 69.2727 24.733 75.0852Q29.6591 80.8977 37.6023 80.8977Q43.5 80.8977 47.5909 77.8125Q51.6818 74.7273 52.7386 69.1364L64.6471 69.1907L67.6705 69.2045Q67.4845 70.7244 67.1299 72.2021Q65.989 76.9556 63.1023 81.2727Q59.3182 86.9318 52.8239 90.4432Q46.3295 93.9545 37.3636 93.9545Q28.0227 93.9545 20.6761 89.7273Q13.3295 85.5 9.08523 77.4886Q4.84091 69.4773 4.84091 58.0909Q4.84091 46.6705 9.13636 38.6591Q13.4318 30.6477 20.7955 26.4375Q28.1591 22.2273 37.3636 22.2273Q45.4432 22.2273 51.9375 25.2102Q58.4318 28.1932 62.5739 33.8693Q65.9244 38.4608 67.1893 44.625Q67.4881 46.0811 67.6705 47.625L64.6478 47.625ZM64.1199 44.625L55.1649 44.625Q53.7256 39.4926 49.7191 36.2437Q44.8362 32.2841 37.7045 32.2841Q28.1739 32.2841 22.3817 39.3275Q16.8068 46.1067 16.8068 58.0909Q16.8068 70.373 22.4443 77.0249Q28.2691 83.8977 37.6023 83.8977Q44.5044 83.8977 49.3973 80.2077Q53.4601 77.1437 55.0671 72.147L64.0363 72.188Q62.9839 76.0527 60.6084 79.6052Q57.2375 84.6464 51.397 87.8042Q45.5705 90.9545 37.3636 90.9545Q28.8242 90.9545 22.1723 87.127Q15.5755 83.3311 11.7362 76.0842Q7.84091 68.7317 7.84091 58.0909Q7.8409 47.424 11.7803 40.0767Q15.6687 32.8245 22.2845 29.0419Q28.9562 25.2273 37.3636 25.2273Q44.7871 25.2273 50.6853 27.9364Q56.4693 30.5931 60.1505 35.6377Q62.9519 39.4766 64.1199 44.625ZM185.011 43.2614Q184.602 39.1364 181.483 36.8523Q178.364 34.5682 173.08 34.5682Q167.659 34.5682 164.761 36.7841Q161.864 39 161.864 42.375Q161.795 46.125 165.085 48.0511Q168.375 49.9773 172.909 51.0341L179.182 52.5341Q185.25 53.8977 189.972 56.4886Q194.693 59.0795 197.403 63.1534Q200.114 67.2273 200.114 73.0568Q200.08 82.6364 192.938 88.3125Q185.795 93.9886 173.011 93.9886Q160.295 93.9886 152.727 88.1932Q146.197 83.1924 145.098 74.0795Q144.924 72.6314 144.886 71.0795L159.17 71.0795Q159.545 76.3295 163.313 78.9716Q167.08 81.6136 172.841 81.6136Q178.466 81.6136 181.824 79.2273Q185.182 76.8409 185.216 73.0227Q185.182 69.4773 182.114 67.5682Q179.045 65.6591 173.352 64.2955L165.75 62.3864Q156.92 60.2727 151.807 55.6705Q146.693 51.0682 146.727 43.3636Q146.693 37.0227 150.119 32.267Q153.545 27.5114 159.545 24.8693Q165.545 22.2273 173.182 22.2273Q180.955 22.2273 186.767 24.8864Q192.58 27.5455 195.818 32.2841Q198.254 35.8484 198.916 40.2614Q199.134 41.7153 199.159 43.2614L185.011 43.2614ZM187.46 40.2614Q186.352 36.6991 183.255 34.4318Q179.345 31.5682 173.08 31.5682Q166.644 31.5682 162.939 34.401Q158.864 37.5175 158.864 42.3205Q158.764 47.8265 163.569 50.64Q167.251 52.7958 172.211 53.9518L178.524 55.4611Q184.179 56.7318 188.528 59.1187Q192.604 61.355 194.906 64.8151Q197.114 68.134 197.114 73.0461Q197.085 81.1845 191.071 85.9639Q184.749 90.9886 173.011 90.9886Q161.312 90.9886 154.551 85.8113Q149.165 81.6868 148.125 74.0795L156.605 74.0795Q157.743 78.7295 161.59 81.4277Q166.132 84.6137 172.841 84.6136Q179.423 84.6136 183.562 81.6727Q188.168 78.3991 188.216 72.9939Q188.166 67.8007 183.699 65.021Q180.217 62.8549 174.083 61.3858L166.448 59.4688Q158.361 57.5327 153.814 53.4406Q149.699 49.7374 149.727 43.3475Q149.698 37.9836 152.553 34.0207Q155.502 29.9277 160.754 27.6149Q166.177 25.2273 173.182 25.2273Q180.301 25.2273 185.519 27.6144Q190.573 29.9266 193.341 33.9769Q195.262 36.7869 195.875 40.2614L187.46 40.2614ZM268.58 47.625L256.67 47.625Q255.818 41.8636 251.761 38.5739Q247.705 35.2841 241.636 35.2841Q233.523 35.2841 228.631 41.233Q223.739 47.1818 223.739 58.0909Q223.739 69.2727 228.665 75.0852Q233.591 80.8977 241.534 80.8977Q247.432 80.8977 251.523 77.8125Q255.614 74.7273 256.67 69.1364L268.579 69.1907L271.602 69.2045Q271.416 70.7243 271.062 72.2021Q269.921 76.9557 267.034 81.2727Q263.25 86.9318 256.756 90.4432Q250.261 93.9545 241.295 93.9545Q231.955 93.9545 224.608 89.7273Q217.261 85.5 213.017 77.4886Q208.773 69.4773 208.773 58.0909Q208.773 46.6705 213.068 38.6591Q217.364 30.6477 224.727 26.4375Q232.091 22.2273 241.295 22.2273Q249.375 22.2273 255.869 25.2102Q262.364 28.1932 266.506 33.8693Q269.856 38.4608 271.121 44.625Q271.42 46.0812 271.602 47.625L268.58 47.625ZM268.052 44.625L259.097 44.625Q257.657 39.4927 253.651 36.2437Q248.768 32.2841 241.636 32.2841Q232.106 32.2841 226.314 39.3275Q220.739 46.1067 220.739 58.0909Q220.739 70.373 226.376 77.0249Q232.201 83.8977 241.534 83.8977Q248.436 83.8977 253.329 80.2077Q257.392 77.1437 258.999 72.147L267.968 72.188Q266.916 76.0527 264.54 79.6052Q261.169 84.6464 255.329 87.8042Q249.502 90.9545 241.295 90.9545Q232.756 90.9545 226.104 87.127Q219.507 83.3311 215.668 76.0842Q211.773 68.7317 211.773 58.0909Q211.773 47.424 215.712 40.0767Q219.601 32.8245 226.216 29.0419Q232.888 25.2273 241.295 25.2273Q248.719 25.2273 254.617 27.9364Q260.401 30.5931 264.082 35.6377Q266.884 39.4766 268.052 44.625ZM519.205 43.2614Q518.795 39.1364 515.676 36.8523Q512.557 34.5682 507.273 34.5682Q501.852 34.5682 498.955 36.7841Q496.057 39 496.057 42.375Q495.989 46.125 499.278 48.0511Q502.568 49.9773 507.102 51.0341L513.375 52.5341Q519.443 53.8977 524.165 56.4886Q528.886 59.0795 531.597 63.1534Q534.307 67.2273 534.307 73.0568Q534.273 82.6364 527.131 88.3125Q519.989 93.9886 507.205 93.9886Q494.489 93.9886 486.92 88.1932Q480.39 83.1924 479.292 74.0795Q479.117 72.6313 479.08 71.0795L493.364 71.0795Q493.739 76.3295 497.506 78.9716Q501.273 81.6136 507.034 81.6136Q512.659 81.6136 516.017 79.2273Q519.375 76.8409 519.409 73.0227Q519.375 69.4773 516.307 67.5682Q513.239 65.6591 507.545 64.2955L499.943 62.3864Q491.114 60.2727 486 55.6705Q480.886 51.0682 480.92 43.3636Q480.886 37.0227 484.313 32.267Q487.739 27.5114 493.739 24.8693Q499.739 22.2273 507.375 22.2273Q515.148 22.2273 520.96 24.8864Q526.773 27.5455 530.011 32.2841Q532.447 35.8484 533.109 40.2614Q533.327 41.7152 533.352 43.2614L519.205 43.2614ZM521.653 40.2614Q520.545 36.6991 517.449 34.4318Q513.538 31.5682 507.273 31.5682Q500.837 31.5682 497.132 34.401Q493.057 37.5175 493.057 42.3205Q492.957 47.8265 497.763 50.64Q501.444 52.7958 506.405 53.9518L512.717 55.4611Q518.372 56.7318 522.722 59.1187Q526.797 61.3549 529.099 64.8151Q531.307 68.1341 531.307 73.0461Q531.278 81.1845 525.264 85.9639Q518.942 90.9886 507.205 90.9886Q495.505 90.9886 488.744 85.8113Q483.358 81.6868 482.318 74.0795L490.798 74.0795Q491.936 78.7295 495.783 81.4277Q500.326 84.6137 507.034 84.6136Q513.616 84.6136 517.755 81.6727Q522.361 78.3991 522.409 72.9939Q522.359 67.8007 517.892 65.021Q514.411 62.8549 508.276 61.3858L500.642 59.4688Q492.554 57.5326 488.007 53.4406Q483.892 49.7374 483.92 43.3475Q483.892 37.9836 486.747 34.0207Q489.695 29.9278 494.948 27.6149Q500.37 25.2273 507.375 25.2273Q514.494 25.2273 519.712 27.6144Q524.766 29.9267 527.535 33.9769Q529.455 36.787 530.068 40.2614L521.653 40.2614ZM377.455 90L355.705 90L355.705 26.1818L377.659 26.1818Q387.425 26.1818 394.371 29.9887Q401.195 33.7293 404.865 40.7334Q408.614 47.8862 408.614 58.0227Q408.614 68.1935 404.848 75.3805Q401.161 82.4183 394.303 86.1758Q387.323 90 377.455 90ZM355.705 23.1818L377.659 23.1818Q388.193 23.1818 395.813 27.358Q403.432 31.5341 407.523 39.3409Q411.614 47.1477 411.614 58.0227Q411.614 68.9318 407.506 76.7727Q403.398 84.6136 395.744 88.8068Q388.091 93 377.455 93L352.705 93L352.705 23.1818L355.705 23.1818ZM364.466 83.3523L376.841 83.3523Q387.973 83.3523 393.956 77.1098Q399.886 70.9213 399.886 58.0227Q399.886 45.1867 393.949 39.031Q387.968 32.8296 376.875 32.8295L364.466 32.8295L364.466 83.3523ZM370.466 35.8295L376.875 35.8295Q386.693 35.8296 391.79 41.1136Q396.886 46.3977 396.886 58.0227Q396.886 69.7159 391.79 75.0341Q386.693 80.3523 376.841 80.3523L367.466 80.3523L367.466 35.8295L370.466 35.8295ZM93.8131 68.5568L119.801 68.5568L109.259 36.1364L104.355 36.1364L93.8131 68.5568ZM297.745 68.5568L323.732 68.5568L313.19 36.1364L308.287 36.1364L297.745 68.5568ZM114.695 62.5568L115.67 65.5568L97.9432 65.5568L98.9187 62.5568L105.23 43.1484L106.47 39.3347L106.534 39.1364L107.08 39.1364L107.144 39.3347L108.384 43.1484L114.695 62.5568ZM318.627 62.5568L319.602 65.5568L301.875 65.5568L302.85 62.5568L309.161 43.1485L310.401 39.3347L310.466 39.1364L311.011 39.1364L311.076 39.3347L312.316 43.1485L318.627 62.5568Z" fill="url(#gradient_3)" fill-rule="evenodd" />
    </g>
    <path d="M67.6705 47.625L52.7386 47.625Q51.8864 41.8636 47.8295 38.5739Q43.7727 35.2841 37.7045 35.2841Q29.5909 35.2841 24.6989 41.233Q19.8068 47.1818 19.8068 58.0909Q19.8068 69.2727 24.733 75.0852Q29.6591 80.8977 37.6023 80.8977Q43.5 80.8977 47.5909 77.8125Q51.6818 74.7273 52.7386 69.1364L67.6705 69.2045Q66.8864 75.6136 63.1023 81.2727Q59.3182 86.9318 52.8239 90.4432Q46.3295 93.9545 37.3636 93.9545Q28.0227 93.9545 20.6761 89.7273Q13.3295 85.5 9.08523 77.4886Q4.84091 69.4773 4.84091 58.0909Q4.84091 46.6705 9.13636 38.6591Q13.4318 30.6477 20.7955 26.4375Q28.1591 22.2273 37.3636 22.2273Q45.4432 22.2273 51.9375 25.2102Q58.4318 28.1932 62.5739 33.8693Q66.7159 39.5455 67.6705 47.625ZM89.0114 93L73.1932 93L97.2955 23.1818L116.318 23.1818L140.386 93L124.568 93L119.386 77.0795L94.1932 77.0795L89.0114 93ZM97.9432 65.5568L115.67 65.5568L107.08 39.1364L106.534 39.1364L97.9432 65.5568ZM185.011 43.2614Q184.602 39.1364 181.483 36.8523Q178.364 34.5682 173.08 34.5682Q167.659 34.5682 164.761 36.7841Q161.864 39 161.864 42.375Q161.795 46.125 165.085 48.0511Q168.375 49.9773 172.909 51.0341L179.182 52.5341Q185.25 53.8977 189.972 56.4886Q194.693 59.0795 197.403 63.1534Q200.114 67.2273 200.114 73.0568Q200.08 82.6364 192.938 88.3125Q185.795 93.9886 173.011 93.9886Q160.295 93.9886 152.727 88.1932Q145.159 82.3977 144.886 71.0795L159.17 71.0795Q159.545 76.3295 163.313 78.9716Q167.08 81.6136 172.841 81.6136Q178.466 81.6136 181.824 79.2273Q185.182 76.8409 185.216 73.0227Q185.182 69.4773 182.114 67.5682Q179.045 65.6591 173.352 64.2955L165.75 62.3864Q156.92 60.2727 151.807 55.6705Q146.693 51.0682 146.727 43.3636Q146.693 37.0227 150.119 32.267Q153.545 27.5114 159.545 24.8693Q165.545 22.2273 173.182 22.2273Q180.955 22.2273 186.767 24.8864Q192.58 27.5455 195.818 32.2841Q199.057 37.0227 199.159 43.2614L185.011 43.2614ZM271.602 47.625L256.67 47.625Q255.818 41.8636 251.761 38.5739Q247.705 35.2841 241.636 35.2841Q233.523 35.2841 228.631 41.233Q223.739 47.1818 223.739 58.0909Q223.739 69.2727 228.665 75.0852Q233.591 80.8977 241.534 80.8977Q247.432 80.8977 251.523 77.8125Q255.614 74.7273 256.67 69.1364L271.602 69.2045Q270.818 75.6136 267.034 81.2727Q263.25 86.9318 256.756 90.4432Q250.261 93.9545 241.295 93.9545Q231.955 93.9545 224.608 89.7273Q217.261 85.5 213.017 77.4886Q208.773 69.4773 208.773 58.0909Q208.773 46.6705 213.068 38.6591Q217.364 30.6477 224.727 26.4375Q232.091 22.2273 241.295 22.2273Q249.375 22.2273 255.869 25.2102Q262.364 28.1932 266.506 33.8693Q270.648 39.5455 271.602 47.625ZM292.943 93L277.125 93L301.227 23.1818L320.25 23.1818L344.318 93L328.5 93L323.318 77.0795L298.125 77.0795L292.943 93ZM301.875 65.5568L319.602 65.5568L311.011 39.1364L310.466 39.1364L301.875 65.5568ZM377.455 93L352.705 93L352.705 23.1818L377.659 23.1818Q388.193 23.1818 395.813 27.358Q403.432 31.5341 407.523 39.3409Q411.614 47.1477 411.614 58.0227Q411.614 68.9318 407.506 76.7727Q403.398 84.6136 395.744 88.8068Q388.091 93 377.455 93ZM367.466 80.3523L376.841 80.3523Q386.693 80.3523 391.79 75.0341Q396.886 69.7159 396.886 58.0227Q396.886 46.3977 391.79 41.1136Q386.693 35.8296 376.875 35.8295L367.466 35.8295L367.466 80.3523ZM422.523 93L422.523 23.1818L469.568 23.1818L469.568 35.3523L437.284 35.3523L437.284 51.9886L467.148 51.9886L467.148 64.1591L437.284 64.1591L437.284 80.8295L469.705 80.8295L469.705 93L422.523 93ZM519.205 43.2614Q518.795 39.1364 515.676 36.8523Q512.557 34.5682 507.273 34.5682Q501.852 34.5682 498.955 36.7841Q496.057 39 496.057 42.375Q495.989 46.125 499.278 48.0511Q502.568 49.9773 507.102 51.0341L513.375 52.5341Q519.443 53.8977 524.165 56.4886Q528.886 59.0795 531.597 63.1534Q534.307 67.2273 534.307 73.0568Q534.273 82.6364 527.131 88.3125Q519.989 93.9886 507.205 93.9886Q494.489 93.9886 486.92 88.1932Q479.352 82.3977 479.08 71.0795L493.364 71.0795Q493.739 76.3295 497.506 78.9716Q501.273 81.6136 507.034 81.6136Q512.659 81.6136 516.017 79.2273Q519.375 76.8409 519.409 73.0227Q519.375 69.4773 516.307 67.5682Q513.239 65.6591 507.545 64.2955L499.943 62.3864Q491.114 60.2727 486 55.6705Q480.886 51.0682 480.92 43.3636Q480.886 37.0227 484.313 32.267Q487.739 27.5114 493.739 24.8693Q499.739 22.2273 507.375 22.2273Q515.148 22.2273 520.96 24.8864Q526.773 27.5455 530.011 32.2841Q533.25 37.0227 533.352 43.2614L519.205 43.2614Z" fill="none" fill-opacity="0" stroke-width="4" stroke="url(#gradient_10)" transform="translate(37 0)" />
  </g>
</svg>