<?xml version="1.0" encoding="utf-8"?>
<svg width="613" height="116" viewBox="0 0 613 116" fill="none" xmlns="http://www.w3.org/2000/svg">
  <defs>
    <linearGradient id="gradient_1" gradientUnits="userSpaceOnUse" x1="0" y1="0" x2="566" y2="116">
      <stop offset="0" stop-color="#FFFFFF" />
      <stop offset="1" stop-color="#F3E5E5" stop-opacity="0.216" />
    </linearGradient>
    <filter color-interpolation-filters="sRGB" x="-564" y="-114" width="566" height="116" id="filter_2">
      <feFlood flood-opacity="0" result="BackgroundImageFix_1" />
      <feColorMatrix type="matrix" values="0 0 0 0 0 0 0 0 0 0 0 0 0 0 0 0 0 0 1 0" in="SourceAlpha" />
      <feOffset dx="0" dy="4" />
      <feGaussianBlur stdDeviation="2" />
      <feColorMatrix type="matrix" values="0 0 0 0 0 0 0 0 0 0 0 0 0 0 0 0 0 0 0.251 0" />
      <feBlend mode="normal" in2="BackgroundImageFix_1" result="Shadow_2" />
      <feBlend mode="normal" in="SourceGraphic" in2="Shadow_2" result="Shape_3" />
    </filter>
    <linearGradient id="gradient_3" gradientUnits="userSpaceOnUse" x1="0" y1="0" x2="539" y2="0">
      <stop offset="0" stop-color="#F60000" />
      <stop offset="0.17" stop-color="#FF8C00" />
      <stop offset="0.37" stop-color="#FFEE00" />
      <stop offset="0.59" stop-color="#4DE94C" />
      <stop offset="0.794" stop-color="#3783FF" />
      <stop offset="1" stop-color="#4815AA" />
    </linearGradient>
    <filter color-interpolation-filters="sRGB" x="-537" y="-114" width="539" height="116" id="filter_4">
      <feFlood flood-opacity="0" result="BackgroundImageFix_1" />
      <feBlend mode="normal" in="SourceGraphic" in2="BackgroundImageFix_1" result="Shape_2" />
      <feGaussianBlur stdDeviation="11" />
    </filter>
    <linearGradient id="gradient_5" gradientUnits="userSpaceOnUse" x1="0" y1="0" x2="539" y2="0">
      <stop offset="0" stop-color="#F60000" stop-opacity="0.329" />
      <stop offset="0.17" stop-color="#FF8C00" />
      <stop offset="0.37" stop-color="#FFEE00" />
      <stop offset="0.59" stop-color="#4DE94C" />
      <stop offset="0.794" stop-color="#3783FF" />
      <stop offset="1" stop-color="#4815AA" />
    </linearGradient>
    <filter color-interpolation-filters="sRGB" x="-537" y="-114" width="539" height="116" id="filter_6">
      <feFlood flood-opacity="0" result="BackgroundImageFix_1" />
      <feBlend mode="normal" in="SourceGraphic" in2="BackgroundImageFix_1" result="Shape_2" />
      <feColorMatrix type="matrix" values="0 0 0 0 0 0 0 0 0 0 0 0 0 0 0 0 0 0 1 0" in="SourceAlpha" result="HardAlpha_3" />
      <feOffset dx="0" dy="4" />
      <feGaussianBlur stdDeviation="2" />
      <feComposite operator="arithmetic" k2="-1" k3="1" in2="HardAlpha_3" />
      <feColorMatrix type="matrix" values="0 0 0 0 0 0 0 0 0 0 0 0 0 0 0 0 0 0 0.251 0" />
      <feBlend mode="normal" in2="Shape_2" result="InnerShadow_4" />
    </filter>
  </defs>
  <g>
    <g fill="#FFFFFF" fill-opacity="0.369" filter="url(#filter_2)" transform="translate(23 0)">
      <path d="M556 0C561.524 0 566 4.4764 566 10L566 106C566 111.524 561.524 116 556 116L10 116C4.4764 116 0 111.524 0 106L0 10C0 4.4764 4.4764 0 10 0L556 0Z" />
      <path d="M566 10C566 4.4764 561.524 0 556 0L10 0C4.4764 0 0 4.4764 0 10L0 106C0 111.524 4.4764 116 10 116L556 116C561.524 116 566 111.524 566 106L566 10ZM10 0.999999L556 1Q559.729 1 562.364 3.63576Q565 6.27155 565 10L565 106Q565 109.728 562.364 112.364Q559.729 115 556 115L10 115Q6.27151 115 3.63576 112.364Q1 109.728 1 106L1 10Q1 6.27151 3.63576 3.63576Q6.27152 0.999999 10 0.999999Z" fill="url(#gradient_1)" fill-rule="evenodd" />
    </g>
    <g fill="none" stroke-width="3" stroke="url(#gradient_3)" filter="url(#filter_4)" transform="translate(37 0)">
      <path d="M67.6705 47.625L52.7386 47.625Q51.8864 41.8636 47.8295 38.5739Q43.7727 35.2841 37.7045 35.2841Q29.5909 35.2841 24.6989 41.233Q19.8068 47.1818 19.8068 58.0909Q19.8068 69.2727 24.733 75.0852Q29.6591 80.8977 37.6023 80.8977Q43.5 80.8977 47.5909 77.8125Q51.6818 74.7273 52.7386 69.1364L67.6705 69.2045Q66.8864 75.6136 63.1023 81.2727Q59.3182 86.9318 52.8239 90.4432Q46.3295 93.9545 37.3636 93.9545Q28.0227 93.9545 20.6761 89.7273Q13.3295 85.5 9.08523 77.4886Q4.84091 69.4773 4.84091 58.0909Q4.84091 46.6705 9.13636 38.6591Q13.4318 30.6477 20.7955 26.4375Q28.1591 22.2273 37.3636 22.2273Q45.4432 22.2273 51.9375 25.2102Q58.4318 28.1932 62.5739 33.8693Q66.7159 39.5455 67.6705 47.625ZM89.0114 93L73.1932 93L97.2955 23.1818L116.318 23.1818L140.386 93L124.568 93L119.386 77.0795L94.1932 77.0795L89.0114 93ZM97.9432 65.5568L115.67 65.5568L107.08 39.1364L106.534 39.1364L97.9432 65.5568ZM185.011 43.2614Q184.602 39.1364 181.483 36.8523Q178.364 34.5682 173.08 34.5682Q167.659 34.5682 164.761 36.7841Q161.864 39 161.864 42.375Q161.795 46.125 165.085 48.0511Q168.375 49.9773 172.909 51.0341L179.182 52.5341Q185.25 53.8977 189.972 56.4886Q194.693 59.0795 197.403 63.1534Q200.114 67.2273 200.114 73.0568Q200.08 82.6364 192.938 88.3125Q185.795 93.9886 173.011 93.9886Q160.295 93.9886 152.727 88.1932Q145.159 82.3977 144.886 71.0795L159.17 71.0795Q159.545 76.3295 163.313 78.9716Q167.08 81.6136 172.841 81.6136Q178.466 81.6136 181.824 79.2273Q185.182 76.8409 185.216 73.0227Q185.182 69.4773 182.114 67.5682Q179.045 65.6591 173.352 64.2955L165.75 62.3864Q156.92 60.2727 151.807 55.6705Q146.693 51.0682 146.727 43.3636Q146.693 37.0227 150.119 32.267Q153.545 27.5114 159.545 24.8693Q165.545 22.2273 173.182 22.2273Q180.955 22.2273 186.767 24.8864Q192.58 27.5455 195.818 32.2841Q199.057 37.0227 199.159 43.2614L185.011 43.2614ZM271.602 47.625L256.67 47.625Q255.818 41.8636 251.761 38.5739Q247.705 35.2841 241.636 35.2841Q233.523 35.2841 228.631 41.233Q223.739 47.1818 223.739 58.0909Q223.739 69.2727 228.665 75.0852Q233.591 80.8977 241.534 80.8977Q247.432 80.8977 251.523 77.8125Q255.614 74.7273 256.67 69.1364L271.602 69.2045Q270.818 75.6136 267.034 81.2727Q263.25 86.9318 256.756 90.4432Q250.261 93.9545 241.295 93.9545Q231.955 93.9545 224.608 89.7273Q217.261 85.5 213.017 77.4886Q208.773 69.4773 208.773 58.0909Q208.773 46.6705 213.068 38.6591Q217.364 30.6477 224.727 26.4375Q232.091 22.2273 241.295 22.2273Q249.375 22.2273 255.869 25.2102Q262.364 28.1932 266.506 33.8693Q270.648 39.5455 271.602 47.625ZM292.943 93L277.125 93L301.227 23.1818L320.25 23.1818L344.318 93L328.5 93L323.318 77.0795L298.125 77.0795L292.943 93ZM301.875 65.5568L319.602 65.5568L311.011 39.1364L310.466 39.1364L301.875 65.5568ZM377.455 93L352.705 93L352.705 23.1818L377.659 23.1818Q388.193 23.1818 395.813 27.358Q403.432 31.5341 407.523 39.3409Q411.614 47.1477 411.614 58.0227Q411.614 68.9318 407.506 76.7727Q403.398 84.6136 395.744 88.8068Q388.091 93 377.455 93ZM367.466 80.3523L376.841 80.3523Q386.693 80.3523 391.79 75.0341Q396.886 69.7159 396.886 58.0227Q396.886 46.3977 391.79 41.1136Q386.693 35.8296 376.875 35.8295L367.466 35.8295L367.466 80.3523ZM422.523 93L422.523 23.1818L469.568 23.1818L469.568 35.3523L437.284 35.3523L437.284 51.9886L467.148 51.9886L467.148 64.1591L437.284 64.1591L437.284 80.8295L469.705 80.8295L469.705 93L422.523 93ZM519.205 43.2614Q518.795 39.1364 515.676 36.8523Q512.557 34.5682 507.273 34.5682Q501.852 34.5682 498.955 36.7841Q496.057 39 496.057 42.375Q495.989 46.125 499.278 48.0511Q502.568 49.9773 507.102 51.0341L513.375 52.5341Q519.443 53.8977 524.165 56.4886Q528.886 59.0795 531.597 63.1534Q534.307 67.2273 534.307 73.0568Q534.273 82.6364 527.131 88.3125Q519.989 93.9886 507.205 93.9886Q494.489 93.9886 486.92 88.1932Q479.352 82.3977 479.08 71.0795L493.364 71.0795Q493.739 76.3295 497.506 78.9716Q501.273 81.6136 507.034 81.6136Q512.659 81.6136 516.017 79.2273Q519.375 76.8409 519.409 73.0227Q519.375 69.4773 516.307 67.5682Q513.239 65.6591 507.545 64.2955L499.943 62.3864Q491.114 60.2727 486 55.6705Q480.886 51.0682 480.92 43.3636Q480.886 37.0227 484.313 32.267Q487.739 27.5114 493.739 24.8693Q499.739 22.2273 507.375 22.2273Q515.148 22.2273 520.96 24.8864Q526.773 27.5455 530.011 32.2841Q533.25 37.0227 533.352 43.2614L519.205 43.2614Z" fill="#FFFFFF" fill-opacity="0" />
    </g>
    <path d="M67.6705 47.625L52.7386 47.625Q51.8864 41.8636 47.8295 38.5739Q43.7727 35.2841 37.7045 35.2841Q29.5909 35.2841 24.6989 41.233Q19.8068 47.1818 19.8068 58.0909Q19.8068 69.2727 24.733 75.0852Q29.6591 80.8977 37.6023 80.8977Q43.5 80.8977 47.5909 77.8125Q51.6818 74.7273 52.7386 69.1364L67.6705 69.2045Q66.8864 75.6136 63.1023 81.2727Q59.3182 86.9318 52.8239 90.4432Q46.3295 93.9545 37.3636 93.9545Q28.0227 93.9545 20.6761 89.7273Q13.3295 85.5 9.08523 77.4886Q4.84091 69.4773 4.84091 58.0909Q4.84091 46.6705 9.13636 38.6591Q13.4318 30.6477 20.7955 26.4375Q28.1591 22.2273 37.3636 22.2273Q45.4432 22.2273 51.9375 25.2102Q58.4318 28.1932 62.5739 33.8693Q66.7159 39.5455 67.6705 47.625ZM89.0114 93L73.1932 93L97.2955 23.1818L116.318 23.1818L140.386 93L124.568 93L119.386 77.0795L94.1932 77.0795L89.0114 93ZM97.9432 65.5568L115.67 65.5568L107.08 39.1364L106.534 39.1364L97.9432 65.5568ZM185.011 43.2614Q184.602 39.1364 181.483 36.8523Q178.364 34.5682 173.08 34.5682Q167.659 34.5682 164.761 36.7841Q161.864 39 161.864 42.375Q161.795 46.125 165.085 48.0511Q168.375 49.9773 172.909 51.0341L179.182 52.5341Q185.25 53.8977 189.972 56.4886Q194.693 59.0795 197.403 63.1534Q200.114 67.2273 200.114 73.0568Q200.08 82.6364 192.938 88.3125Q185.795 93.9886 173.011 93.9886Q160.295 93.9886 152.727 88.1932Q145.159 82.3977 144.886 71.0795L159.17 71.0795Q159.545 76.3295 163.313 78.9716Q167.08 81.6136 172.841 81.6136Q178.466 81.6136 181.824 79.2273Q185.182 76.8409 185.216 73.0227Q185.182 69.4773 182.114 67.5682Q179.045 65.6591 173.352 64.2955L165.75 62.3864Q156.92 60.2727 151.807 55.6705Q146.693 51.0682 146.727 43.3636Q146.693 37.0227 150.119 32.267Q153.545 27.5114 159.545 24.8693Q165.545 22.2273 173.182 22.2273Q180.955 22.2273 186.767 24.8864Q192.58 27.5455 195.818 32.2841Q199.057 37.0227 199.159 43.2614L185.011 43.2614ZM271.602 47.625L256.67 47.625Q255.818 41.8636 251.761 38.5739Q247.705 35.2841 241.636 35.2841Q233.523 35.2841 228.631 41.233Q223.739 47.1818 223.739 58.0909Q223.739 69.2727 228.665 75.0852Q233.591 80.8977 241.534 80.8977Q247.432 80.8977 251.523 77.8125Q255.614 74.7273 256.67 69.1364L271.602 69.2045Q270.818 75.6136 267.034 81.2727Q263.25 86.9318 256.756 90.4432Q250.261 93.9545 241.295 93.9545Q231.955 93.9545 224.608 89.7273Q217.261 85.5 213.017 77.4886Q208.773 69.4773 208.773 58.0909Q208.773 46.6705 213.068 38.6591Q217.364 30.6477 224.727 26.4375Q232.091 22.2273 241.295 22.2273Q249.375 22.2273 255.869 25.2102Q262.364 28.1932 266.506 33.8693Q270.648 39.5455 271.602 47.625ZM292.943 93L277.125 93L301.227 23.1818L320.25 23.1818L344.318 93L328.5 93L323.318 77.0795L298.125 77.0795L292.943 93ZM301.875 65.5568L319.602 65.5568L311.011 39.1364L310.466 39.1364L301.875 65.5568ZM377.455 93L352.705 93L352.705 23.1818L377.659 23.1818Q388.193 23.1818 395.813 27.358Q403.432 31.5341 407.523 39.3409Q411.614 47.1477 411.614 58.0227Q411.614 68.9318 407.506 76.7727Q403.398 84.6136 395.744 88.8068Q388.091 93 377.455 93ZM367.466 80.3523L376.841 80.3523Q386.693 80.3523 391.79 75.0341Q396.886 69.7159 396.886 58.0227Q396.886 46.3977 391.79 41.1136Q386.693 35.8296 376.875 35.8295L367.466 35.8295L367.466 80.3523ZM422.523 93L422.523 23.1818L469.568 23.1818L469.568 35.3523L437.284 35.3523L437.284 51.9886L467.148 51.9886L467.148 64.1591L437.284 64.1591L437.284 80.8295L469.705 80.8295L469.705 93L422.523 93ZM519.205 43.2614Q518.795 39.1364 515.676 36.8523Q512.557 34.5682 507.273 34.5682Q501.852 34.5682 498.955 36.7841Q496.057 39 496.057 42.375Q495.989 46.125 499.278 48.0511Q502.568 49.9773 507.102 51.0341L513.375 52.5341Q519.443 53.8977 524.165 56.4886Q528.886 59.0795 531.597 63.1534Q534.307 67.2273 534.307 73.0568Q534.273 82.6364 527.131 88.3125Q519.989 93.9886 507.205 93.9886Q494.489 93.9886 486.92 88.1932Q479.352 82.3977 479.08 71.0795L493.364 71.0795Q493.739 76.3295 497.506 78.9716Q501.273 81.6136 507.034 81.6136Q512.659 81.6136 516.017 79.2273Q519.375 76.8409 519.409 73.0227Q519.375 69.4773 516.307 67.5682Q513.239 65.6591 507.545 64.2955L499.943 62.3864Q491.114 60.2727 486 55.6705Q480.886 51.0682 480.92 43.3636Q480.886 37.0227 484.313 32.267Q487.739 27.5114 493.739 24.8693Q499.739 22.2273 507.375 22.2273Q515.148 22.2273 520.96 24.8864Q526.773 27.5455 530.011 32.2841Q533.25 37.0227 533.352 43.2614L519.205 43.2614Z" fill="none" fill-opacity="0.459" stroke-width="5" stroke="url(#gradient_3)" transform="translate(37 0)" />
    <path d="M67.6705 47.625L52.7386 47.625Q51.8864 41.8636 47.8295 38.5739Q43.7727 35.2841 37.7045 35.2841Q29.5909 35.2841 24.6989 41.233Q19.8068 47.1818 19.8068 58.0909Q19.8068 69.2727 24.733 75.0852Q29.6591 80.8977 37.6023 80.8977Q43.5 80.8977 47.5909 77.8125Q51.6818 74.7273 52.7386 69.1364L67.6705 69.2045Q66.8864 75.6136 63.1023 81.2727Q59.3182 86.9318 52.8239 90.4432Q46.3295 93.9545 37.3636 93.9545Q28.0227 93.9545 20.6761 89.7273Q13.3295 85.5 9.08523 77.4886Q4.84091 69.4773 4.84091 58.0909Q4.84091 46.6705 9.13636 38.6591Q13.4318 30.6477 20.7955 26.4375Q28.1591 22.2273 37.3636 22.2273Q45.4432 22.2273 51.9375 25.2102Q58.4318 28.1932 62.5739 33.8693Q66.7159 39.5455 67.6705 47.625ZM89.0114 93L73.1932 93L97.2955 23.1818L116.318 23.1818L140.386 93L124.568 93L119.386 77.0795L94.1932 77.0795L89.0114 93ZM97.9432 65.5568L115.67 65.5568L107.08 39.1364L106.534 39.1364L97.9432 65.5568ZM185.011 43.2614Q184.602 39.1364 181.483 36.8523Q178.364 34.5682 173.08 34.5682Q167.659 34.5682 164.761 36.7841Q161.864 39 161.864 42.375Q161.795 46.125 165.085 48.0511Q168.375 49.9773 172.909 51.0341L179.182 52.5341Q185.25 53.8977 189.972 56.4886Q194.693 59.0795 197.403 63.1534Q200.114 67.2273 200.114 73.0568Q200.08 82.6364 192.938 88.3125Q185.795 93.9886 173.011 93.9886Q160.295 93.9886 152.727 88.1932Q145.159 82.3977 144.886 71.0795L159.17 71.0795Q159.545 76.3295 163.313 78.9716Q167.08 81.6136 172.841 81.6136Q178.466 81.6136 181.824 79.2273Q185.182 76.8409 185.216 73.0227Q185.182 69.4773 182.114 67.5682Q179.045 65.6591 173.352 64.2955L165.75 62.3864Q156.92 60.2727 151.807 55.6705Q146.693 51.0682 146.727 43.3636Q146.693 37.0227 150.119 32.267Q153.545 27.5114 159.545 24.8693Q165.545 22.2273 173.182 22.2273Q180.955 22.2273 186.767 24.8864Q192.58 27.5455 195.818 32.2841Q199.057 37.0227 199.159 43.2614L185.011 43.2614ZM271.602 47.625L256.67 47.625Q255.818 41.8636 251.761 38.5739Q247.705 35.2841 241.636 35.2841Q233.523 35.2841 228.631 41.233Q223.739 47.1818 223.739 58.0909Q223.739 69.2727 228.665 75.0852Q233.591 80.8977 241.534 80.8977Q247.432 80.8977 251.523 77.8125Q255.614 74.7273 256.67 69.1364L271.602 69.2045Q270.818 75.6136 267.034 81.2727Q263.25 86.9318 256.756 90.4432Q250.261 93.9545 241.295 93.9545Q231.955 93.9545 224.608 89.7273Q217.261 85.5 213.017 77.4886Q208.773 69.4773 208.773 58.0909Q208.773 46.6705 213.068 38.6591Q217.364 30.6477 224.727 26.4375Q232.091 22.2273 241.295 22.2273Q249.375 22.2273 255.869 25.2102Q262.364 28.1932 266.506 33.8693Q270.648 39.5455 271.602 47.625ZM292.943 93L277.125 93L301.227 23.1818L320.25 23.1818L344.318 93L328.5 93L323.318 77.0795L298.125 77.0795L292.943 93ZM301.875 65.5568L319.602 65.5568L311.011 39.1364L310.466 39.1364L301.875 65.5568ZM377.455 93L352.705 93L352.705 23.1818L377.659 23.1818Q388.193 23.1818 395.813 27.358Q403.432 31.5341 407.523 39.3409Q411.614 47.1477 411.614 58.0227Q411.614 68.9318 407.506 76.7727Q403.398 84.6136 395.744 88.8068Q388.091 93 377.455 93ZM367.466 80.3523L376.841 80.3523Q386.693 80.3523 391.79 75.0341Q396.886 69.7159 396.886 58.0227Q396.886 46.3977 391.79 41.1136Q386.693 35.8296 376.875 35.8295L367.466 35.8295L367.466 80.3523ZM422.523 93L422.523 23.1818L469.568 23.1818L469.568 35.3523L437.284 35.3523L437.284 51.9886L467.148 51.9886L467.148 64.1591L437.284 64.1591L437.284 80.8295L469.705 80.8295L469.705 93L422.523 93ZM519.205 43.2614Q518.795 39.1364 515.676 36.8523Q512.557 34.5682 507.273 34.5682Q501.852 34.5682 498.955 36.7841Q496.057 39 496.057 42.375Q495.989 46.125 499.278 48.0511Q502.568 49.9773 507.102 51.0341L513.375 52.5341Q519.443 53.8977 524.165 56.4886Q528.886 59.0795 531.597 63.1534Q534.307 67.2273 534.307 73.0568Q534.273 82.6364 527.131 88.3125Q519.989 93.9886 507.205 93.9886Q494.489 93.9886 486.92 88.1932Q479.352 82.3977 479.08 71.0795L493.364 71.0795Q493.739 76.3295 497.506 78.9716Q501.273 81.6136 507.034 81.6136Q512.659 81.6136 516.017 79.2273Q519.375 76.8409 519.409 73.0227Q519.375 69.4773 516.307 67.5682Q513.239 65.6591 507.545 64.2955L499.943 62.3864Q491.114 60.2727 486 55.6705Q480.886 51.0682 480.92 43.3636Q480.886 37.0227 484.313 32.267Q487.739 27.5114 493.739 24.8693Q499.739 22.2273 507.375 22.2273Q515.148 22.2273 520.96 24.8864Q526.773 27.5455 530.011 32.2841Q533.25 37.0227 533.352 43.2614L519.205 43.2614Z" fill="#ffffff" fill-opacity="0.459" stroke-width="5" stroke="url(#gradient_5)" filter="url(#filter_6)" transform="translate(37 0)" />
  </g>
</svg>